name Walk8.mot
datacolumns 19
datarows 27
range 3.93500000 4.06500000
endheader

                time	   L_ground_force_vx	   L_ground_force_vy	   L_ground_force_vz	   L_ground_force_px	   L_ground_force_py	   L_ground_force_pz	   R_ground_force_vx	   R_ground_force_vy	   R_ground_force_vz	   R_ground_force_px	   R_ground_force_py	   R_ground_force_pz	   L_ground_torque_x	   L_ground_torque_y	   L_ground_torque_z	   R_ground_torque_x	   R_ground_torque_y	   R_ground_torque_z	
          3.93500000	         18.14030510	        970.67426711	         69.28144799	         -0.35348154	          0.00000000	         -0.06551255	         -0.02746285	          0.31982763	          0.01834262	          0.00004712	          0.00000000	          0.00015508	          0.00000000	          0.51275494	          0.00000000	          0.00000000	          0.00099464	          0.00000000	
          3.94000000	         19.89528969	        970.94654163	         70.17031969	         -0.35145275	          0.00000000	         -0.06574698	         -0.03893775	          0.40872383	          0.02081242	          0.00005777	          0.00000000	          0.00018187	          0.00000000	          0.57066946	          0.00000000	          0.00000000	          0.00243306	          0.00000000	
          3.94500000	         21.74466248	        971.15278928	         70.96586097	         -0.34946166	          0.00000000	         -0.06597136	         -0.05202935	          0.49693964	          0.02209703	          0.00006724	          0.00000000	          0.00020122	          0.00000000	          0.61371836	          0.00000000	          0.00000000	          0.00437604	          0.00000000	
          3.95000000	         23.69965246	        971.37079432	         71.66116765	         -0.34752019	          0.00000000	         -0.06617897	         -0.06602746	          0.57321497	          0.02137504	          0.00007373	          0.00000000	          0.00020657	          0.00000000	          0.64101721	          0.00000000	          0.00000000	          0.00686620	          0.00000000	
          3.95500000	         25.77195260	        971.66369681	         72.25446656	         -0.34563912	          0.00000000	         -0.06636289	         -0.07971278	          0.62146366	          0.01761304	          0.00007474	          0.00000000	          0.00018943	          0.00000000	          0.65214630	          0.00000000	          0.00000000	          0.00990250	          0.00000000	
          3.96000000	         27.97095937	        972.08734863	         72.74641698	         -0.34382855	          0.00000000	         -0.06651656	         -0.09122256	          0.62005778	          0.00957447	          0.00006711	          0.00000000	          0.00013935	          0.00000000	          0.64733445	          0.00000000	          0.00000000	          0.01341600	          0.00000000	
          3.96500000	         30.30524507	        972.69231413	         73.13830167	         -0.34209855	          0.00000000	         -0.06663515	         -0.09792039	          0.54139494	         -0.00414151	          0.00004694	          0.00000000	          0.00004407	          0.00000000	          0.62726432	          0.00000000	          0.00000000	          0.01724031	          0.00000000	
          3.97000000	         32.78454665	        973.51844012	         73.43230509	         -0.34046002	          0.00000000	         -0.06671671	         -0.09628851	          0.35196050	         -0.02501917	          0.00000969	          0.00000000	         -0.00010994	          0.00000000	          0.59304267	          0.00000000	          0.00000000	          0.02107764	          0.00000000	
          3.97500000	         35.42007767	        974.58866377	         73.63394674	         -0.33892444	          0.00000000	         -0.06676186	         -0.08186871	          0.01315367	         -0.05448981	         -0.00004959	          0.00000000	         -0.00033655	          0.00000000	          0.54577573	          0.00000000	          0.00000000	          0.02446203	          0.00000000	
          3.98000000	         38.22400344	        975.90390702	         73.75257528	         -0.33750210	          0.00000000	         -0.06677310	         -0.04928606	         -0.51679704	         -0.09372560	         -0.00013592	          0.00000000	         -0.00064841	          0.00000000	          0.48662724	          0.00000000	          0.00000000	          0.02672273	          0.00000000	
          3.98500000	         41.20843701	        977.43593440	         73.79933409	         -0.33620090	          0.00000000	         -0.06675403	          0.00760102	         -1.27945584	         -0.14335010	         -0.00025377	          0.00000000	         -0.00105475	          0.00000000	          0.41664310	          0.00000000	          0.00000000	          0.02695235	          0.00000000	
          3.99000000	         44.38276802	        979.12669354	         73.78518608	         -0.33502571	          0.00000000	         -0.06670953	          0.09537216	         -2.31093766	         -0.20305444	         -0.00040625	          0.00000000	         -0.00155831	          0.00000000	          0.33684781	          0.00000000	          0.00000000	          0.02398644	          0.00000000	
          3.99500000	         47.75246817	        980.89432558	         73.72049973	         -0.33397726	          0.00000000	         -0.06664490	          0.22047863	         -3.63440599	         -0.27111386	         -0.00059393	          0.00000000	         -0.00215137	          0.00000000	          0.24803747	          0.00000000	          0.00000000	          0.01640326	          0.00000000	
          4.00000000	         51.31795126	        982.64131940	         73.61461495	         -0.33305172	          0.00000000	         -0.06656485	          0.38837592	         -5.24997133	         -0.34380840	         -0.00081333	          0.00000000	         -0.00281084	          0.00000000	          0.15102990	          0.00000000	          0.00000000	          0.00255522	          0.00000000	
          4.00500000	         55.07408815	        984.26333538	         73.47707827	         -0.33224133	          0.00000000	         -0.06647333	          0.60229388	         -7.12178226	         -0.41476554	         -0.00105516	          0.00000000	         -0.00349256	          0.00000000	          0.04686302	          0.00000000	          0.00000000	         -0.01935427	          0.00000000	
          4.01000000	         59.00967659	        985.65630383	         73.31969291	         -0.33153555	          0.00000000	         -0.06637394	          0.86159347	         -9.16233051	         -0.47426244	         -0.00130213	          0.00000000	         -0.00412489	          0.00000000	         -0.06247066	          0.00000000	          0.00000000	         -0.05113256	          0.00000000	
          4.01500000	         63.10873022	        986.71956027	         73.15744857	         -0.33092227	          0.00000000	         -0.06627043	          1.15968131	        -11.21434742	         -0.50855082	         -0.00152667	          0.00000000	         -0.00460221	          0.00000000	         -0.17408093	          0.00000000	          0.00000000	         -0.09438089	          0.00000000	
          4.02000000	         67.34978880	        987.35724283	         73.00824426	         -0.33038898	          0.00000000	         -0.06616645	          1.48149217	        -13.03117701	         -0.49930083	         -0.00168852	          0.00000000	         -0.00477895	          0.00000000	         -0.28463414	          0.00000000	          0.00000000	         -0.15018165	          0.00000000	
          4.02500000	         71.70510286	        987.48019143	         72.89055771	         -0.32992347	          0.00000000	         -0.06606466	          1.80060792	        -14.25719417	         -0.42329877	         -0.00173267	          0.00000000	         -0.00446518	          0.00000000	         -0.39072325	          0.00000000	          0.00000000	         -0.21867461	          0.00000000	
          4.03000000	         76.14048449	        987.00962912	         72.82069845	         -0.32951381	          0.00000000	         -0.06596749	          2.07616502	        -14.41070807	         -0.25257807	         -0.00158783	          0.00000000	         -0.00342522	          0.00000000	         -0.48863788	          0.00000000	          0.00000000	         -0.29851242	          0.00000000	
          4.03500000	         80.61811977	        985.88066469	         72.80985854	         -0.32914827	          0.00000000	         -0.06587776	          2.24981373	        -12.87284957	          0.04479029	         -0.00116614	          0.00000000	         -0.00138109	          0.00000000	         -0.57414286	          0.00000000	          0.00000000	         -0.38619491	          0.00000000	
          4.04000000	         85.09860728	        984.04402022	         72.86265329	         -0.32881652	          0.00000000	         -0.06579755	          2.24313279	         -8.88716041	          0.50297658	         -0.00036476	          0.00000000	          0.00197681	          0.00000000	         -0.64309355	          0.00000000	          0.00000000	         -0.47529654	          0.00000000	
          4.04500000	         89.54177731	        981.46243898	         72.97689947	         -0.32850972	          0.00000000	         -0.06572814	          1.95607341	         -1.57592116	          1.15543185	          0.00092990	          0.00000000	          0.00696925	          0.00000000	         -0.69186235	          0.00000000	          0.00000000	         -0.55562240	          0.00000000	
          4.05000000	         93.90720744	        978.10652484	         73.14418170	         -0.32821942	          0.00000000	         -0.06567010	          1.26720006	         10.01943231	          2.03036017	          0.00283407	          0.00000000	          0.01389485	          0.00000000	         -0.71774084	          0.00000000	          0.00000000	         -0.61235707	          0.00000000	
          4.05500000	         98.15431922	        973.94926377	         73.34865717	         -0.32793741	          0.00000000	         -0.06562246	          0.03670358	         26.86531390	          3.14430521	          0.00545388	          0.00000000	          0.02298088	          0.00000000	         -0.71932366	          0.00000000	          0.00000000	         -0.62530715	          0.00000000	
          4.06000000	        102.24335223	        968.96102928	         73.56691277	         -0.32765562	          0.00000000	         -0.06558243	         -1.88663424	         49.82119226	          4.49358738	          0.00886654	          0.00000000	          0.03431526	          0.00000000	         -0.69650863	          0.00000000	          0.00000000	         -0.56838330	          0.00000000	
          4.06500000	        106.13684083	        963.10290122	         73.76765245	         -0.32736634	          0.00000000	         -0.06554598	         -4.65317324	         79.47377120	          6.04344512	          0.01309469	          0.00000000	          0.04775782	          0.00000000	         -0.65008740	          0.00000000	          0.00000000	         -0.40951979	          0.00000000	
